<svg id="visual" viewBox="0 0 900 450" width="900" height="450" xmlns="http://www.w3.org/2000/svg" xmlns:xlink="http://www.w3.org/1999/xlink" version="1.1"><rect x="0" y="0" width="900" height="450" fill="#D91E75     "></rect><defs><linearGradient id="grad1_0" x1="50%" y1="0%" x2="100%" y2="100%"><stop offset="10%" stop-color="#001220" stop-opacity="1"></stop><stop offset="90%" stop-color="#001220" stop-opacity="1"></stop></linearGradient></defs><defs><linearGradient id="grad2_0" x1="0%" y1="0%" x2="50%" y2="100%"><stop offset="10%" stop-color="#001220" stop-opacity="1"></stop><stop offset="90%" stop-color="#001220" stop-opacity="1"></stop></linearGradient></defs><g transform="translate(900, 0)"><path d="M0 405C-57.3 404.1 -114.6 403.2 -155 374.2C-195.4 345.2 -219 288.1 -245.4 245.4C-271.7 202.7 -300.9 174.3 -328 135.9C-355 97.4 -380 48.7 -405 0L0 0Z" fill="#F29F05"></path></g><g transform="translate(0, 450)"><path d="M0 -405C48.2 -385.4 96.5 -365.8 143.5 -346.5C190.5 -327.2 236.4 -308.2 277.2 -277.2C318 -246.2 353.7 -203.2 374.2 -155C394.6 -106.8 399.8 -53.4 405 0L0 0Z" fill="#F29F05"></path></g></svg>